<mxfile host="Electron" agent="Mozilla/5.0 (X11; Linux x86_64) AppleWebKit/537.36 (KHTML, like Gecko) draw.io/26.0.4 Chrome/128.0.6613.186 Electron/32.2.5 Safari/537.36" version="26.0.4">
  <diagram name="Page-1" id="BzequJGz_ovEUT9kBAj5">
    <mxGraphModel dx="1173" dy="1261" grid="1" gridSize="10" guides="1" tooltips="1" connect="1" arrows="1" fold="1" page="1" pageScale="1" pageWidth="850" pageHeight="1100" math="0" shadow="0">
      <root>
        <mxCell id="0" />
        <mxCell id="1" parent="0" />
        <mxCell id="rKFEqSod50OgrqmUxDPf-9" value="Security group" style="fillColor=none;strokeColor=#DD3522;verticalAlign=top;fontStyle=0;fontColor=#DD3522;whiteSpace=wrap;html=1;" vertex="1" parent="1">
          <mxGeometry x="425" y="460" width="155" height="160" as="geometry" />
        </mxCell>
        <mxCell id="rKFEqSod50OgrqmUxDPf-6" value="Security group" style="fillColor=none;strokeColor=#DD3522;verticalAlign=top;fontStyle=0;fontColor=#DD3522;whiteSpace=wrap;html=1;" vertex="1" parent="1">
          <mxGeometry x="790" y="460" width="130" height="160" as="geometry" />
        </mxCell>
        <mxCell id="rKFEqSod50OgrqmUxDPf-1" style="edgeStyle=orthogonalEdgeStyle;rounded=0;orthogonalLoop=1;jettySize=auto;html=1;" edge="1" parent="1" source="rKFEqSod50OgrqmUxDPf-2" target="rKFEqSod50OgrqmUxDPf-4">
          <mxGeometry relative="1" as="geometry" />
        </mxCell>
        <mxCell id="rKFEqSod50OgrqmUxDPf-2" value="Users" style="sketch=0;outlineConnect=0;fontColor=#232F3E;gradientColor=none;fillColor=#232F3D;strokeColor=none;dashed=0;verticalLabelPosition=bottom;verticalAlign=top;align=center;html=1;fontSize=12;fontStyle=0;aspect=fixed;pointerEvents=1;shape=mxgraph.aws4.users;" vertex="1" parent="1">
          <mxGeometry x="10" y="491" width="78" height="78" as="geometry" />
        </mxCell>
        <mxCell id="rKFEqSod50OgrqmUxDPf-13" style="edgeStyle=orthogonalEdgeStyle;rounded=0;orthogonalLoop=1;jettySize=auto;html=1;" edge="1" parent="1" source="rKFEqSod50OgrqmUxDPf-4" target="rKFEqSod50OgrqmUxDPf-8">
          <mxGeometry relative="1" as="geometry" />
        </mxCell>
        <mxCell id="rKFEqSod50OgrqmUxDPf-14" value="&lt;span style=&quot;font-size: 15px; font-weight: 700;&quot;&gt;&amp;nbsp;Allow Public IP of&lt;/span&gt;&lt;div&gt;&lt;span style=&quot;font-size: 15px; font-weight: 700;&quot;&gt;Edge Locations&amp;nbsp;&lt;/span&gt;&lt;/div&gt;" style="edgeLabel;html=1;align=center;verticalAlign=middle;resizable=0;points=[];" vertex="1" connectable="0" parent="rKFEqSod50OgrqmUxDPf-13">
          <mxGeometry x="-0.3227" y="2" relative="1" as="geometry">
            <mxPoint x="15" y="2" as="offset" />
          </mxGeometry>
        </mxCell>
        <mxCell id="rKFEqSod50OgrqmUxDPf-4" value="Edge Location&lt;div&gt;Public IPs&lt;/div&gt;" style="sketch=0;outlineConnect=0;fontColor=#232F3E;gradientColor=none;fillColor=#8C4FFF;strokeColor=none;dashed=0;verticalLabelPosition=bottom;verticalAlign=top;align=center;html=1;fontSize=12;fontStyle=0;aspect=fixed;pointerEvents=1;shape=mxgraph.aws4.edge_location;" vertex="1" parent="1">
          <mxGeometry x="160" y="491" width="78" height="78" as="geometry" />
        </mxCell>
        <mxCell id="rKFEqSod50OgrqmUxDPf-5" value="EC2 Instances&lt;div&gt;&lt;b&gt;&lt;u&gt;Can be Private&lt;/u&gt;&lt;/b&gt;&lt;/div&gt;" style="sketch=0;points=[[0,0,0],[0.25,0,0],[0.5,0,0],[0.75,0,0],[1,0,0],[0,1,0],[0.25,1,0],[0.5,1,0],[0.75,1,0],[1,1,0],[0,0.25,0],[0,0.5,0],[0,0.75,0],[1,0.25,0],[1,0.5,0],[1,0.75,0]];outlineConnect=0;fontColor=#232F3E;fillColor=#ED7100;strokeColor=#ffffff;dashed=0;verticalLabelPosition=bottom;verticalAlign=top;align=center;html=1;fontSize=12;fontStyle=0;aspect=fixed;shape=mxgraph.aws4.resourceIcon;resIcon=mxgraph.aws4.ec2;" vertex="1" parent="1">
          <mxGeometry x="816" y="491" width="78" height="78" as="geometry" />
        </mxCell>
        <mxCell id="rKFEqSod50OgrqmUxDPf-12" value="&lt;span style=&quot;font-size: 15px; font-weight: 700;&quot;&gt;&amp;nbsp;Allow Security Group of&lt;/span&gt;&lt;div&gt;&lt;span style=&quot;font-size: 15px; font-weight: 700;&quot;&gt;Load Balancer&amp;nbsp;&lt;/span&gt;&lt;/div&gt;" style="edgeStyle=orthogonalEdgeStyle;rounded=0;orthogonalLoop=1;jettySize=auto;html=1;" edge="1" parent="1" source="rKFEqSod50OgrqmUxDPf-8" target="rKFEqSod50OgrqmUxDPf-5">
          <mxGeometry x="-0.003" relative="1" as="geometry">
            <mxPoint as="offset" />
          </mxGeometry>
        </mxCell>
        <mxCell id="rKFEqSod50OgrqmUxDPf-8" value="Application Load Balancer&lt;div&gt;&lt;b&gt;&lt;u&gt;Must be Public&lt;/u&gt;&lt;/b&gt;&lt;/div&gt;" style="sketch=0;outlineConnect=0;fontColor=#232F3E;gradientColor=none;fillColor=#8C4FFF;strokeColor=none;dashed=0;verticalLabelPosition=bottom;verticalAlign=top;align=center;html=1;fontSize=12;fontStyle=0;aspect=fixed;pointerEvents=1;shape=mxgraph.aws4.application_load_balancer;" vertex="1" parent="1">
          <mxGeometry x="463.5" y="491" width="78" height="78" as="geometry" />
        </mxCell>
      </root>
    </mxGraphModel>
  </diagram>
</mxfile>
